<svg xmlns="http://www.w3.org/2000/svg" width="23.59" height="15.457" viewBox="0 0 23.59 15.457">
  <g id="azerbaijan" transform="translate(0 -88.257)">
    <path id="Path_2795" data-name="Path 2795" d="M0,315.4a1.767,1.767,0,0,0,1.764,1.671H21.823A1.767,1.767,0,0,0,23.59,315.3v-3.385H0Z" transform="translate(0 -213.353)" fill="#73af00"/>
    <path id="Path_2796" data-name="Path 2796" d="M21.823,88.257H1.764A1.767,1.767,0,0,0,0,89.928v3.481H23.59V90.024A1.767,1.767,0,0,0,21.823,88.257Z" fill="#82afff"/>
    <rect id="Rectangle_1947" data-name="Rectangle 1947" width="23.59" height="5.152" transform="translate(0 93.41)" fill="#ff4b55"/>
    <g id="Group_4520" data-name="Group 4520" transform="translate(9.769 93.952)">
      <path id="Path_2797" data-name="Path 2797" d="M214.607,215.575a1.654,1.654,0,0,1,0-3.308,1.622,1.622,0,0,1,.914.281.04.04,0,0,0,.052-.06,2.05,2.05,0,0,0-1.554-.632,2.066,2.066,0,0,0,.072,4.132,2.05,2.05,0,0,0,1.484-.635.04.04,0,0,0-.052-.059A1.622,1.622,0,0,1,214.607,215.575Z" transform="translate(-212.024 -211.854)" fill="#f5f5f5"/>
      <path id="Path_2798" data-name="Path 2798" d="M277.633,234.045l.172.482.462-.22a.041.041,0,0,1,.055.055l-.22.462.482.172a.041.041,0,0,1,0,.077l-.482.172.22.462a.041.041,0,0,1-.055.055l-.462-.22-.172.482a.041.041,0,0,1-.077,0l-.172-.482-.462.22a.041.041,0,0,1-.055-.055l.22-.462-.482-.172a.041.041,0,0,1,0-.077l.482-.172-.22-.462a.041.041,0,0,1,.055-.055l.462.22.172-.482A.041.041,0,0,1,277.633,234.045Z" transform="translate(-273.603 -232.997)" fill="#f5f5f5"/>
    </g>
  </g>
</svg>
